<?xml version="1.0" encoding="UTF-8" standalone="no"?>
<!DOCTYPE svg PUBLIC "-//W3C//DTD SVG 1.1//EN" "http://www.w3.org/Graphics/SVG/1.1/DTD/svg11.dtd">
<svg width="100%" height="100%" viewBox="0 0 100 100" version="1.1" xmlns="http://www.w3.org/2000/svg" xmlns:xlink="http://www.w3.org/1999/xlink" xml:space="preserve" xmlns:serif="http://www.serif.com/" style="fill-rule:evenodd;clip-rule:evenodd;stroke-linejoin:round;stroke-miterlimit:2;">
    <g transform="matrix(0.781867,0,0,0.812284,10.9066,8.78875)">
        <path d="M50,26.908C77.596,26.908 100,50 100,50C100,50 77.596,74.562 50,74.562C22.404,74.562 0,50 0,50C0,50 22.404,26.908 50,26.908ZM50,30.721C38.954,30.721 29.986,39.689 29.986,50.735C29.986,61.781 38.954,70.749 50,70.749C61.046,70.749 70.014,61.781 70.014,50.735C70.014,39.689 61.046,30.721 50,30.721Z" style="fill:white;"/>
    </g>
    <g transform="matrix(0.812284,0,0.35659,0.650232,-6.05076,18.3409)">
        <rect x="45.259" y="6.97" width="4.741" height="83.437" style="fill:white;"/>
    </g>
</svg>
